<svg version="1.1" id="Uploaded to svgrepo.com" xmlns="http://www.w3.org/2000/svg" xmlns:xlink="http://www.w3.org/1999/xlink" viewBox="-1.92 -1.92 35.84 35.84" xml:space="preserve" fill="#ED7070" stroke="#ED7070" stroke-width="0.544"><g id="SVGRepo_bgCarrier" stroke-width="0"></g><g id="SVGRepo_tracerCarrier" stroke-linecap="round" stroke-linejoin="round"></g><g id="SVGRepo_iconCarrier"> <style type="text/css"> .feather_een{fill:#ED7070;} </style> <path class="feather_een" d="M27,6h-5.292c-0.466,0-0.925-0.108-1.342-0.317l-6.733-3.367C13.217,2.108,12.758,2,12.292,2H5 C3.343,2,2,3.343,2,5v18c0,1.657,1.343,3,3,3h6.75c0.492,0,0.977,0.121,1.412,0.353l6.176,3.294C19.773,29.879,20.258,30,20.75,30 H27c1.657,0,3-1.343,3-3V9C30,7.343,28.657,6,27,6z M29,27c0,1.103-0.897,2-2,2h-6.25c-0.327,0-0.653-0.081-0.941-0.235 l-6.177-3.294C13.055,25.163,12.404,25,11.75,25H5c-1.103,0-2-0.897-2-2V5c0-1.103,0.897-2,2-2h7.292 c0.309,0,0.618,0.073,0.894,0.211l6.733,3.367C20.472,6.854,21.09,7,21.708,7H27c1.103,0,2,0.897,2,2V27z M27.854,24.854L26.707,26 l1.146,1.146c0.195,0.195,0.195,0.512,0,0.707C27.756,27.951,27.628,28,27.5,28s-0.256-0.049-0.354-0.146L26,26.707l-1.146,1.146 C24.756,27.951,24.628,28,24.5,28s-0.256-0.049-0.354-0.146c-0.195-0.195-0.195-0.512,0-0.707L25.293,26l-1.146-1.146 c-0.195-0.195-0.195-0.512,0-0.707s0.512-0.195,0.707,0L26,25.293l1.146-1.146c0.195-0.195,0.512-0.195,0.707,0 S28.049,24.658,27.854,24.854z M12,4.5v1C12,5.776,11.776,6,11.5,6S11,5.776,11,5.5v-1C11,4.224,11.224,4,11.5,4S12,4.224,12,4.5z M12,7.5v1C12,8.776,11.776,9,11.5,9S11,8.776,11,8.5v-1C11,7.224,11.224,7,11.5,7S12,7.224,12,7.5z M12,10.5v1 c0,0.276-0.224,0.5-0.5,0.5S11,11.776,11,11.5v-1c0-0.276,0.224-0.5,0.5-0.5S12,10.224,12,10.5z M12,13.5v1 c0,0.276-0.224,0.5-0.5,0.5S11,14.776,11,14.5v-1c0-0.276,0.224-0.5,0.5-0.5S12,13.224,12,13.5z M12,16.5v1 c0,0.276-0.224,0.5-0.5,0.5S11,17.776,11,17.5v-1c0-0.276,0.224-0.5,0.5-0.5S12,16.224,12,16.5z M12,19.5v1 c0,0.276-0.224,0.5-0.5,0.5S11,20.776,11,20.5v-1c0-0.276,0.224-0.5,0.5-0.5S12,19.224,12,19.5z M12,22.5v1 c0,0.276-0.224,0.5-0.5,0.5S11,23.776,11,23.5v-1c0-0.276,0.224-0.5,0.5-0.5S12,22.224,12,22.5z M21,8.5v1 c0,0.276-0.224,0.5-0.5,0.5S20,9.776,20,9.5v-1C20,8.224,20.224,8,20.5,8S21,8.224,21,8.5z M21,11.5v1c0,0.276-0.224,0.5-0.5,0.5 S20,12.776,20,12.5v-1c0-0.276,0.224-0.5,0.5-0.5S21,11.224,21,11.5z M21,14.5v1c0,0.276-0.224,0.5-0.5,0.5S20,15.776,20,15.5v-1 c0-0.276,0.224-0.5,0.5-0.5S21,14.224,21,14.5z M21,17.5v1c0,0.276-0.224,0.5-0.5,0.5S20,18.776,20,18.5v-1 c0-0.276,0.224-0.5,0.5-0.5S21,17.224,21,17.5z M21,20.5v1c0,0.276-0.224,0.5-0.5,0.5S20,21.776,20,21.5v-1 c0-0.276,0.224-0.5,0.5-0.5S21,20.224,21,20.5z M21,23.5v1c0,0.276-0.224,0.5-0.5,0.5S20,24.776,20,24.5v-1 c0-0.276,0.224-0.5,0.5-0.5S21,23.224,21,23.5z M21,26.5v1c0,0.276-0.224,0.5-0.5,0.5S20,27.776,20,27.5v-1 c0-0.276,0.224-0.5,0.5-0.5S21,26.224,21,26.5z"></path> </g></svg>